<svg width="88" height="88" viewBox="0 0 88 88" fill="none" xmlns="http://www.w3.org/2000/svg">
<g clip-path="url(#clip0_10527_91563)">
<path fill-rule="evenodd" clip-rule="evenodd" d="M81.8338 30.2267C81.4202 30.847 80.7147 32.2256 80.8485 33.2919C81.6878 39.9252 79.097 46.2178 73.9031 50.1548C74.5964 52.2834 74.8883 54.6756 74.7343 56.9178C74.4464 61.0494 72.3259 65.5216 69.0579 68.8868C68.2997 69.6653 68.0483 71.2385 68.0199 72.0413L68.0159 72.1426C67.9916 72.6616 67.5901 73.0955 67.0631 73.1644L66.8725 73.1725C66.7671 73.1684 66.6738 73.1563 66.5846 73.1279L66.5198 73.1117C65.7332 72.8887 64.1316 72.6373 63.1099 73.1117C60.4582 74.328 57.693 74.9484 54.8953 74.9484C53.8533 74.9484 52.8032 74.8592 51.7733 74.6808C50.3583 77.746 47.289 79.7206 43.9156 79.7206C40.6517 79.7206 37.6311 77.8393 36.1714 74.9078C35.2956 75.0538 34.4158 75.1268 33.5562 75.1268C30.7829 75.1268 27.8353 74.4294 25.0336 73.1117C24.0929 72.6697 22.4792 72.8684 21.6237 73.1157C21.494 73.1563 21.3885 73.1765 21.275 73.1806C20.679 73.1806 20.2127 72.7508 20.1641 72.1791C20.16 72.1467 20.16 72.1264 20.16 72.1102V72.0372C20.16 71.9561 20.0789 69.8924 19.118 68.8828C14.439 63.9646 12.7807 57.6192 14.5566 51.4482C12.8578 50.2481 11.24 48.5533 9.73981 46.4125C7.15301 42.7228 6.8327 37.0343 7.33952 33.2879C7.48143 32.2418 6.73539 30.8065 6.31777 30.1902C6.22857 30.0929 6.15559 29.9591 6.10288 29.8172C6.06386 29.7001 6.05864 29.5943 6.05468 29.5142L6.05422 29.505L6.06233 29.3347C6.09071 29.0265 6.26506 28.7306 6.53266 28.5481C6.67052 28.4589 6.82459 28.4021 6.98272 28.3778C7.86661 28.0372 9.12352 27.3236 9.60601 26.4641C12.9632 20.5079 18.6558 17.0007 25.2525 16.8183C25.954 14.7586 27.1784 12.6745 28.7151 10.9351C30.2396 9.21194 32.8994 7.3509 35.6687 6.0575C36.7918 2.48139 40.1733 0 43.9197 0C47.5972 0 50.8692 2.32731 52.0855 5.80206C56.7321 7.80096 60.2149 11.4338 61.9138 16.0479H62.007C64.3343 16.0479 66.7509 16.5182 68.8349 17.3738C72.6665 18.951 76.3034 22.3487 78.5739 26.4722C79.0686 27.3723 80.435 28.0859 81.1851 28.3738C81.3675 28.3981 81.5338 28.4589 81.6757 28.5603C82.0608 28.836 82.223 29.3306 82.0771 29.7847L82.0608 29.8577C82.0081 29.9956 81.9352 30.1213 81.8338 30.2267ZM22.2238 70.7722C23.3023 70.606 24.77 70.5695 25.9783 71.1371C29.1854 72.6495 32.4656 73.2374 35.4457 72.8157C35.324 72.2278 35.2632 71.6358 35.2632 71.0641C35.2632 70.8208 35.2713 70.5816 35.2916 70.3384C32.9643 70.0748 30.71 69.4058 28.5813 68.3516C27.5393 67.8408 25.9134 68.0435 25.3742 68.1692C25.2931 68.1935 25.212 68.2097 25.0539 68.2138C24.6281 68.2138 24.2389 67.9624 24.0645 67.5691L24.0483 67.5245C24.0281 67.4759 24.0118 67.4272 23.9997 67.3826L23.9916 67.3177C23.9794 67.2772 23.9753 67.2488 23.9713 67.2204L23.9672 67.1474C23.9307 66.6568 23.6348 65.0715 22.8036 64.2281C19.9046 61.3089 18.4693 56.8691 18.8707 52.0442C18.8817 51.9116 18.8961 51.7824 18.9108 51.6504L18.9108 51.6504L18.9108 51.6503L18.9153 51.6104L18.9193 51.5942C18.3638 51.1684 17.8327 50.6819 17.334 50.1589C14.8121 56.0826 16.0609 62.5009 20.7033 67.3867C21.6399 68.3679 22.0494 69.7302 22.2238 70.7722ZM11.5198 27.5345C10.871 28.6941 9.67899 29.4969 8.73023 29.9875C9.20866 30.9362 9.69116 32.2742 9.51276 33.5879C9.0181 37.2086 9.45194 42.1917 11.536 45.1718C12.7321 46.8828 14.0093 48.2735 15.3229 49.3074C15.4729 48.9547 15.6351 48.606 15.8054 48.2654C15.5378 47.8721 15.3108 47.5112 15.1161 47.1625C13.1173 43.6513 12.3834 39.3778 13.0564 35.1327C13.2511 33.8798 12.3712 32.3269 12.2699 32.1526C12.2293 32.0958 12.1685 32.0066 12.1239 31.8972C12.0915 31.8161 12.0712 31.7309 12.059 31.6336L12.0586 31.6277L12.0586 31.6277C12.0547 31.565 12.051 31.5061 12.055 31.4471C12.059 31.0781 12.2536 30.7376 12.578 30.5429C12.6834 30.474 12.8051 30.4335 12.9348 30.4091L12.949 30.4022C13.2346 30.262 14.6927 29.5465 15.2702 28.467C17.1921 24.8787 21.0196 22.1743 25.7756 21.0512C25.9499 21.0066 26.1283 20.9701 26.3067 20.9336C26.5378 20.3052 26.8297 19.6727 27.1784 19.0523C20.6466 18.5334 14.8161 21.6878 11.5198 27.5345ZM28.5529 17.0048C28.8205 16.6723 29.1125 16.3358 29.4206 16.0074C31.1478 14.1828 33.3535 12.6867 35.8146 11.669C35.4578 10.7121 35.2713 9.71876 35.2673 8.70107C33.2481 9.79985 31.4276 11.1581 30.3532 12.3785C29.153 13.7409 28.188 15.2938 27.5555 16.8913C27.888 16.9196 28.2164 16.9602 28.5529 17.0048ZM60.4136 18.5982C59.3432 14.2031 56.578 10.627 52.5761 8.4659V8.66052C52.5761 9.7958 52.3572 10.9027 51.9234 11.9528C54.3845 13.3354 56.5334 15.4722 58.143 18.1401C58.1579 18.1644 58.1732 18.1887 58.1885 18.2131C58.2192 18.2617 58.2498 18.3104 58.2768 18.359C58.9864 18.3874 59.7 18.4644 60.4136 18.5982ZM16.8555 36.1747C17.9624 37.9911 19.2356 39.1345 20.6466 39.5886C22.0373 40.0265 23.7645 39.8441 25.7553 39.017C25.3661 38.1898 25.0782 37.4195 24.8876 36.8599C24.0402 37.1113 22.8036 37.3749 21.4291 37.3749C20.4195 37.3749 19.4707 37.233 18.595 36.9532C18.007 36.7667 17.4232 36.5072 16.8555 36.1747ZM23.8213 34.8813C23.1077 34.0501 21.8224 32.8094 20.1397 32.2742C18.5098 31.7552 16.8069 31.962 15.5743 32.2621C16.2879 33.0973 17.5732 34.338 19.2558 34.8732C20.9385 35.4084 22.7346 35.1408 23.8213 34.8813ZM25.6783 23.3258C22.6738 24.1449 20.1357 25.6775 18.4287 27.6966C20.7966 26.7763 22.913 26.6019 24.7538 27.1817C25.1268 27.2993 25.4999 27.4574 25.8648 27.648C25.735 27.125 25.6539 26.6384 25.6012 26.164C25.4999 25.2315 25.5282 24.2787 25.6783 23.3258ZM45.2861 17.1994C44.4103 17.3413 43.5872 17.3535 42.6709 17.2156C42.8979 18.4847 43.4696 19.5997 43.9764 20.3903C44.4265 19.6848 45.0468 18.5252 45.2861 17.1994ZM64.8493 51.801C65.6034 51.659 66.3535 51.4604 67.2252 51.1847C67.8172 50.9941 68.4092 50.7711 68.989 50.5238C68.9646 50.0616 68.9079 49.6074 68.8308 49.1736C67.5942 50.2278 66.2603 51.1076 64.8493 51.801ZM63.3491 54.2094C63.5315 54.3999 63.6978 54.5986 63.8518 54.8054C65.0317 56.3948 65.5142 58.5315 65.2953 61.1508C67.282 58.714 68.5632 55.819 68.916 52.9281C68.92 52.92 68.92 52.9079 68.92 52.9038C68.5511 53.0417 68.2105 53.1633 67.8861 53.2646C66.2319 53.7917 64.9223 54.0675 63.3491 54.2094ZM59.5621 54.2337C58.9621 53.9823 58.3093 53.7715 57.6119 53.6133C57.4659 54.3553 57.2713 55.1095 57.024 55.8596C58.3701 56.3299 60.6528 57.38 62.1571 59.4154C62.5301 59.9182 62.8544 60.4777 63.118 61.0859C63.3207 58.9613 62.9761 57.2868 62.1003 56.1028C61.5408 55.3487 60.7096 54.7283 59.6189 54.258L59.6432 54.0431L59.5621 54.2337ZM54.5791 42.3782C55.2359 42.4187 55.8441 42.366 56.3753 42.1957C57.4497 41.8511 58.4471 41.0361 59.3351 39.767C58.8931 39.5157 58.4512 39.24 57.9971 38.9318C57.843 39.171 57.6524 39.3819 57.4254 39.5522C56.9226 39.9414 56.2617 40.0914 55.6495 40.0265C55.2157 39.9698 54.8183 39.7995 54.4818 39.54C54.5791 40.132 54.6318 40.7361 54.6318 41.3362C54.6318 41.6767 54.6115 42.0214 54.5791 42.3782ZM56.282 35.2422C56.3712 35.2543 56.4604 35.2705 56.5577 35.2949C56.7523 34.6948 56.9875 34.0907 57.251 33.4987C55.763 32.9797 54.4656 32.8905 53.3911 33.2352C52.864 33.4014 52.341 33.7014 51.8301 34.1231C52.5843 34.9543 53.2006 35.8787 53.6628 36.8883C53.8087 36.4261 54.0966 36.0166 54.498 35.7165C55.0048 35.3273 55.6495 35.1489 56.282 35.2422ZM56.5415 46.1408C57.5227 47.4666 57.9728 49.2223 57.8836 51.3549C61.3745 51.3144 65.198 49.6358 68.1578 46.8503C67.7402 45.8651 67.1806 44.9853 66.4995 44.2352C65.0885 42.6944 62.9963 41.5429 61.8773 40.9915C61.6867 40.9226 61.488 40.8415 61.2934 40.7564C60.0852 42.5768 58.6539 43.7608 57.0402 44.2757C56.3955 44.4784 55.7063 44.5798 54.9927 44.5798H54.8751C55.5441 45.0258 56.0995 45.5488 56.5415 46.1408ZM54.7818 47.4383C54.4575 46.9963 53.9993 46.603 53.4276 46.2543C52.9127 47.2558 52.2518 48.1519 51.4449 48.9344C51.5178 48.9344 51.5907 48.9425 51.6637 48.9506L51.6639 48.9506C52.714 49.0925 53.5046 49.9602 53.5817 51.0022H53.6465C54.3277 51.0022 55.0332 51.0387 55.7103 51.1036C55.7549 49.5669 55.4468 48.3343 54.7818 47.4383ZM54.8305 55.523C54.9967 55.0487 55.2521 54.2377 55.4508 53.2768C54.4412 53.1836 53.5695 53.1673 53.0749 53.1917C52.9127 53.6498 52.6572 54.4445 52.4383 55.4014C53.4317 55.523 54.3277 55.5311 54.8305 55.523ZM71.2757 35.9923C70.7 36.3207 70.1161 36.5842 69.5282 36.7707C67.0833 37.5492 64.606 37.0789 63.2396 36.6856C63.0572 37.2289 62.7733 37.9871 62.3801 38.8142C62.4325 38.8404 62.4892 38.8667 62.5503 38.8949L62.5504 38.8949C62.6215 38.9278 62.6986 38.9633 62.7815 39.0048C64.5938 39.69 66.1751 39.8238 67.4766 39.4062C69.1674 38.8629 70.4324 37.3667 71.2757 35.9923ZM64.2938 34.707C65.5304 35.007 67.2415 35.2138 68.8633 34.6948C70.481 34.1758 71.7298 33.0365 72.5448 32.0877C71.3041 31.7836 69.6012 31.5809 67.9794 32.0958C66.3495 32.6148 65.1007 33.7582 64.2938 34.707ZM73.007 37.3384C71.6366 39.4994 69.9986 40.8902 68.1416 41.4862C67.7929 41.5956 67.428 41.6808 67.0347 41.7416C67.4239 42.0741 67.7807 42.4187 68.101 42.7674C68.7376 43.4607 69.2931 44.2554 69.7472 45.1312C71.7136 42.7066 72.8489 39.9738 73.007 37.3384ZM67.3144 30.0158C67.8902 29.8334 68.4984 29.7077 69.1349 29.6428C67.1604 28.8238 65.4493 28.6414 64.0303 29.0874C62.6233 29.5374 61.3543 30.6727 60.2514 32.4689C61.0867 32.923 61.784 33.3811 62.2706 33.7258C63.1464 32.6067 64.8736 30.7943 67.3144 30.0158ZM59.2459 34.4029C58.8729 35.2543 58.6093 36.0247 58.439 36.568C58.8445 36.8721 59.55 37.3708 60.4176 37.8655C60.8109 37.0302 61.0867 36.2477 61.2651 35.6882C60.7826 35.3354 60.0771 34.857 59.2459 34.4029ZM26.8581 35.8666C27.0325 36.4301 27.3163 37.2127 27.7096 38.0439C28.5732 37.5451 29.2787 37.0505 29.6842 36.7505C29.5341 36.2801 29.2625 35.4895 28.8651 34.5853C28.0421 35.0354 27.3447 35.5098 26.8581 35.8666ZM30.7586 53.7471C28.6543 54.2256 27.146 55.0649 26.2783 56.2366C25.3985 57.4206 25.0579 59.0951 25.2606 61.2197C25.5282 60.6115 25.8485 60.0479 26.2216 59.5451C27.7258 57.5138 30.0045 56.4637 31.3506 55.9893C31.1032 55.2352 30.9086 54.481 30.7667 53.7431L30.7586 53.7471ZM33.3941 39.4143C33.0494 39.6414 32.6521 39.763 32.2426 39.763C31.5533 39.763 30.9046 39.4184 30.5072 38.8345C29.9558 39.2318 29.3801 39.6008 28.7962 39.9373C29.6801 41.2064 30.6735 42.0254 31.752 42.3701C32.2101 42.516 32.7453 42.5647 33.2927 42.5647C33.244 42.143 33.2197 41.7294 33.2197 41.3321C33.2197 40.6955 33.2765 40.0549 33.3941 39.4143ZM31.5817 35.5179C31.8006 35.4449 32.0196 35.4084 32.2426 35.4084C33.1427 35.4084 33.9212 35.9801 34.2293 36.8072C34.6915 35.822 35.2997 34.9178 36.0417 34.1109C35.6079 33.7947 35.17 33.5595 34.7361 33.4217C33.6536 33.077 32.3561 33.1662 30.864 33.6852C31.1235 34.265 31.3587 34.8691 31.5817 35.5179ZM33.1184 44.7582C32.4048 44.7582 31.7195 44.6568 31.083 44.4541C29.4976 43.9473 28.0826 42.7877 26.8784 40.9996C24.024 43.0756 21.9846 46.5503 21.2669 50.5562C22.2035 51.1198 23.1888 51.5131 24.1983 51.7199C26.7405 52.2551 29.8301 51.6996 30.4261 51.5861L30.4951 51.5698C30.3896 49.3966 30.8356 47.6085 31.8331 46.2665C32.2547 45.7029 32.798 45.192 33.4508 44.7501L33.427 44.7509L33.4267 44.7509C33.3182 44.7547 33.2165 44.7582 33.1184 44.7582ZM25.285 54.0796C24.7457 54.035 24.2267 53.9661 23.7483 53.8647C22.8157 53.666 21.8954 53.3417 21.0115 52.9038C20.8736 56.0015 21.5994 58.8721 23.0631 61.094C22.8847 58.5558 23.3753 56.488 24.5227 54.9351C24.7417 54.6391 24.9971 54.3553 25.285 54.0796ZM32.9197 53.4106C33.1062 54.3107 33.3454 55.0973 33.54 55.6447C34.0671 55.6528 34.9429 55.6447 35.9363 55.5271C35.7173 54.5662 35.4578 53.7755 35.2997 53.3174C35.2116 53.3188 35.1122 53.3196 35.0026 53.3205H35.0025C34.4912 53.3246 33.7577 53.3305 32.9197 53.4106ZM52.3045 41.3362C52.3045 36.714 48.5459 32.9554 43.9237 32.9554C39.3015 32.9554 35.543 36.714 35.543 41.3362C35.543 45.9583 39.3015 49.7169 43.9237 49.7169C48.5459 49.7169 52.3045 45.9583 52.3045 41.3362ZM41.8843 29.2982C41.8843 28.986 41.9573 28.6738 42.1032 28.3859C41.5194 27.9156 40.9436 27.3925 40.4206 26.8573C39.5854 27.9886 39.1637 29.0792 39.1637 30.105C39.1637 30.5754 39.265 31.0822 39.4597 31.6093C40.4206 31.1633 41.4342 30.8673 42.4763 30.7294C42.0992 30.3524 41.8843 29.8456 41.8843 29.2982ZM45.3793 30.7335C46.4538 30.8795 47.4998 31.1917 48.4892 31.6579C48.6959 31.1187 48.7973 30.5997 48.7973 30.1091C48.7973 29.0752 48.3635 27.9724 47.5161 26.829C46.8511 27.5061 46.2186 28.0534 45.7645 28.4265C45.9024 28.7062 45.9713 29.0022 45.9713 29.3022C45.9713 29.8456 45.7564 30.3524 45.3793 30.7335ZM43.9805 23.5245C43.5021 23.857 42.6871 24.4571 41.8559 25.2436C42.679 26.0951 43.4737 26.7438 43.944 27.1047C44.4224 26.7357 45.2293 26.0748 46.0645 25.2071C45.2536 24.4449 44.4549 23.8529 43.9805 23.5245ZM31.6871 58.199C30.6491 58.6045 29.0233 59.4276 27.9772 60.8467C26.9798 62.1968 26.6513 63.843 26.5662 65.0877C27.7542 64.6214 29.2665 63.8024 30.2761 62.4401C31.2695 61.094 31.5979 59.4438 31.6871 58.199ZM33.8928 57.8341C33.8482 59.237 33.536 61.7022 32.0277 63.7376C31.6749 64.216 31.2573 64.666 30.7789 65.0877C32.8872 64.6133 34.3955 63.7781 35.2673 62.5982C36.1349 61.4305 36.4755 59.7763 36.2931 57.6841C35.3362 57.8057 34.4766 57.8341 33.8928 57.8341ZM34.501 51.132C34.501 51.0995 34.501 51.0671 34.505 51.0346C34.5861 50.4427 34.8902 49.9196 35.3686 49.5628C35.7173 49.2912 36.1349 49.1371 36.5728 49.1087C35.7944 48.3708 35.1335 47.5315 34.6104 46.603C34.1888 46.9031 33.8482 47.2234 33.5927 47.5721C32.9318 48.46 32.6196 49.6966 32.6602 51.2374C33.2562 51.1766 33.8725 51.1401 34.501 51.132ZM38.9245 51.6266C38.8515 52.2145 38.5474 52.7376 38.069 53.1025C37.9271 53.2119 37.777 53.2971 37.6189 53.366C37.8014 53.9296 37.9595 54.5094 38.0933 55.1054C39.6178 54.6716 40.7287 53.9945 41.3978 53.0903C41.6451 52.7578 41.8478 52.3483 42.0059 51.8699C40.9031 51.6712 39.853 51.3022 38.8677 50.7711C38.9407 51.0509 38.961 51.3387 38.9245 51.6266ZM49.1622 50.8725C49.1744 50.7954 49.1865 50.7224 49.2028 50.6454C48.3189 51.1522 47.3701 51.5252 46.3727 51.7604C46.5308 52.2307 46.7335 52.6321 46.9768 52.9687C47.6458 53.8728 48.7568 54.554 50.2853 54.9878C50.411 54.4202 50.5651 53.8526 50.7354 53.2971C49.6934 52.9889 49.0163 51.9672 49.1622 50.8725ZM56.3469 63.6078C54.8426 61.5724 54.5264 59.1113 54.4858 57.7044C53.6628 57.7044 52.86 57.6557 52.0937 57.5544C51.9071 59.6465 52.2477 61.3008 53.1154 62.4685C53.9871 63.6484 55.4954 64.4836 57.6038 64.962C57.1294 64.5444 56.7077 64.0903 56.3469 63.6078ZM61.8124 64.958C61.7232 63.7132 61.3948 62.0671 60.3974 60.721C59.3472 59.2938 57.7254 58.4707 56.6915 58.0693C56.7686 59.1559 57.0645 60.9075 58.1025 62.3103C59.1526 63.7294 60.7744 64.5525 61.8124 64.958ZM52.7221 31.1592C54.3034 30.6443 56.1401 30.77 58.1795 31.5201C59.2378 28.1913 58.8039 24.2097 56.9875 20.5647C55.8928 20.6498 54.8507 20.8972 53.8979 21.3148C51.9963 22.146 50.2448 23.7151 49.3731 24.5827C49.2555 24.7571 49.1176 24.9517 48.9716 25.1463C50.3015 26.8087 50.9787 28.4751 50.9787 30.105C50.9787 30.8389 50.8408 31.589 50.5651 32.3391C51.2503 31.7917 51.972 31.3944 52.7221 31.1592ZM47.5145 23.3537L47.5146 23.3536L47.5149 23.3533C47.5919 23.2742 47.6842 23.1794 47.7918 23.0745C48.6351 21.7648 49.073 20.4593 49.0771 19.2388C49.0771 18.2536 48.7932 17.2197 48.2337 16.1533C47.9986 16.2871 47.7756 16.4047 47.5647 16.5061C47.4512 18.8658 46.3119 20.8769 45.5577 21.9635C46.2186 22.4379 46.839 22.9447 47.4025 23.4677C47.4353 23.435 47.4726 23.3967 47.5143 23.3538L47.5145 23.3537ZM42.3992 21.9676C41.6532 20.885 40.526 18.8942 40.4003 16.5588C40.1571 16.4534 39.9178 16.3277 39.6502 16.1736C39.0948 17.2237 38.8109 18.2576 38.8109 19.2348C38.8109 20.5485 39.3137 21.9432 40.3111 23.3826C40.3172 23.3867 40.3243 23.3907 40.3314 23.3948C40.3385 23.3988 40.3456 23.4029 40.3517 23.4069C40.3982 23.4419 40.4448 23.4842 40.4878 23.5233L40.4936 23.5286C41.2072 22.8636 41.8965 22.3284 42.3992 21.9676ZM37.4202 32.4121C37.1242 31.6377 36.9783 30.8632 36.9783 30.105C36.9783 28.4873 37.6432 26.833 38.9569 25.1788L38.8312 25.0125C35.9363 23.0785 32.0034 22.3041 27.9934 22.8515C27.742 23.8975 27.665 24.9355 27.7704 25.937C28.0137 28.1954 29.1976 30.5592 29.7004 31.4674C29.7287 31.5169 29.7597 31.5678 29.7911 31.6193C29.8137 31.6563 29.8364 31.6936 29.8585 31.7309C31.1073 31.2606 32.2791 31.0295 33.3657 31.0295C34.0833 31.0295 34.7604 31.1268 35.4011 31.3336C36.0944 31.5566 36.7756 31.9174 37.4202 32.4121ZM20.8087 30.1942C23.2496 30.9727 24.9728 32.7892 25.8485 33.9042C26.3229 33.5636 27.0163 33.1095 27.8555 32.6473L27.8312 32.6067C26.7284 30.8268 25.4674 29.7036 24.0808 29.2617C22.6779 28.8116 20.9506 29.0022 18.9801 29.8212C19.6208 29.8861 20.233 30.0118 20.8087 30.1942ZM22.7509 41.9768C21.7332 42.0457 20.825 41.9322 19.9816 41.6646C18.076 41.0564 16.4095 39.613 15.0148 37.3546C14.8567 40.5009 15.5419 43.5013 17.0096 46.0759C17.6583 47.2153 18.4409 48.2248 19.3491 49.0844C19.9857 46.4165 21.1534 43.9757 22.7509 41.9768ZM43.9237 62.4158C45.3063 62.4158 46.6768 62.7482 47.8972 63.3808C47.9742 63.2672 48.0513 63.1537 48.1202 63.0402C49.4582 60.7656 49.8596 57.6152 49.9123 57.1367C47.7877 56.5691 46.2105 55.6041 45.2212 54.2661C44.7752 53.6539 44.4306 52.9362 44.2035 52.1253C43.9724 52.993 43.6196 53.7552 43.1534 54.3918C42.1722 55.7136 40.6193 56.6745 38.5271 57.2462C39.0664 59.2127 40.2057 61.0899 41.8316 62.6793C42.5371 62.505 43.2385 62.4158 43.9237 62.4158ZM60.9123 28.3616C61.6867 27.7331 62.5098 27.279 63.3734 27.0033C65.2669 26.3911 67.4726 26.6019 69.9256 27.6115C68.17 24.9963 65.8224 22.969 63.1018 21.7365C62.5868 21.5053 62.0597 21.2986 61.5326 21.1323C61.5124 21.1262 61.4931 21.1202 61.4738 21.1141C61.4546 21.108 61.4353 21.1019 61.4151 21.0958C60.7663 20.8931 60.0973 20.7431 59.4283 20.6498C60.5028 23.1677 61.0137 25.8194 60.9123 28.3616ZM51.1489 20.3336C51.8017 19.9078 52.414 19.5754 53.0221 19.3118C53.8858 18.9348 54.8183 18.6631 55.7833 18.509C54.4291 16.5142 52.7302 14.9045 50.8367 13.8422C50.5732 14.195 50.2772 14.5315 49.965 14.8356C50.8043 16.3196 51.23 17.7995 51.23 19.2348C51.23 19.5956 51.2017 19.9606 51.1489 20.3336ZM37.4527 8.66052C37.4527 12.2285 40.3557 15.1316 43.9237 15.1316C47.4917 15.1316 50.3948 12.2285 50.3948 8.66052C50.3948 5.09252 47.4917 2.18946 43.9237 2.18946C40.3557 2.18946 37.4527 5.09252 37.4527 8.66052ZM37.0472 21.6594C36.7837 20.8363 36.6499 20.0214 36.6499 19.2348C36.6499 17.8076 37.0756 16.3358 37.8987 14.8518C37.4973 14.4626 37.1405 14.049 36.8323 13.6152C34.5618 14.5234 32.5507 15.8614 31.0059 17.5035C30.6248 17.9049 30.268 18.3306 29.9436 18.7726C29.9234 18.8091 29.8909 18.8537 29.8544 18.8942C29.4652 19.4375 29.1246 19.997 28.8408 20.5647C29.4044 20.5201 29.9639 20.4958 30.5194 20.4958C32.8143 20.4958 35.0321 20.889 37.0472 21.6594ZM38.1338 61.6008C37.8825 62.4644 37.5094 63.2348 37.0188 63.8997C35.8552 65.4688 33.9617 66.5717 31.3911 67.1839C32.8143 67.707 34.282 68.0435 35.77 68.1894C36.4674 66.223 37.8338 64.589 39.6462 63.5551C39.0826 62.9388 38.5758 62.2779 38.1338 61.6008ZM50.3948 71.0641C50.3948 67.4961 47.4917 64.5931 43.9237 64.5931C40.3557 64.5931 37.4527 67.4961 37.4527 71.0641C37.4527 74.6321 40.3557 77.5392 43.9237 77.5392C47.4917 77.5392 50.3948 74.6321 50.3948 71.0641ZM50.7192 62.7118C50.4962 63.2348 50.261 63.7173 50.0056 64.1471L49.7015 64.6336C50.5489 65.3878 51.226 66.296 51.7247 67.3299C53.4884 67.5245 55.2238 67.4231 56.7888 67.0096C54.3155 66.3892 52.4951 65.3026 51.3598 63.774L51.1165 63.4456H51.1327C50.9827 63.2145 50.8449 62.9672 50.7192 62.7118ZM53.4357 69.6045C53.1357 69.6045 52.8194 69.5964 52.4464 69.5721C52.5315 70.0667 52.5761 70.5654 52.5721 71.0601C52.5721 71.5831 52.5275 72.1061 52.4342 72.617C55.6454 73.0914 59.0229 72.5846 62.2057 71.1249C63.4383 70.5614 64.906 70.5979 65.9724 70.7641C66.1589 69.7018 66.5725 68.3192 67.5009 67.3623C70.4243 64.3539 72.3137 60.3925 72.5651 56.7637C72.6827 55.0527 72.484 53.1187 72.0177 51.4198C71.7299 51.5861 71.4541 51.7401 71.1865 51.882C71.1744 52.3037 71.1379 52.7416 71.0852 53.1836C70.6027 57.1773 68.6362 61.0534 65.5588 64.1025C64.6384 65.0107 64.4154 66.819 64.3952 67.0217L64.3911 67.0866C64.3546 67.5813 63.9654 67.9989 63.4667 68.0719L63.3937 68.0759C63.2721 68.1002 63.1383 68.08 63.0369 68.0597L62.968 68.0435C62.4409 67.9178 60.819 67.707 59.7486 68.23C57.8957 69.1301 55.7103 69.6045 53.4357 69.6045ZM75.0789 34.934C75.6709 38.9196 74.2153 43.2945 71.0852 46.9355C70.9473 47.0977 70.8054 47.2558 70.6594 47.4099C70.85 48.0789 70.9919 48.7641 71.0811 49.4655C76.6845 46.1449 79.5227 40.2252 78.6834 33.5717C78.5172 32.2499 78.9915 30.9241 79.4619 29.9915C78.5009 29.5009 77.3049 28.6981 76.6642 27.5304C74.6289 23.8286 71.3933 20.7877 68.0078 19.397C66.3657 18.7239 64.4438 18.3185 62.5706 18.2495C62.6476 18.5942 62.7206 18.9226 62.7733 19.247C63.1869 19.397 63.6005 19.5673 64.0059 19.7497C67.7158 21.4324 70.8622 24.4611 72.857 28.2764C73.4125 29.3347 74.9127 30.0767 75.1843 30.2024C75.3181 30.2226 75.4519 30.2713 75.5695 30.3483C75.9669 30.5956 76.1615 31.07 76.0479 31.5282C76.0236 31.6093 76.0115 31.6498 75.9952 31.6863L75.8776 31.9174C75.8249 32.0026 74.8762 33.6041 75.0789 34.934ZM43.9237 3.95724C41.4261 3.95724 39.3948 5.98857 39.3948 8.48617C39.3948 10.9838 41.4261 13.0192 43.9237 13.0192C46.4213 13.0192 48.4567 10.9838 48.4567 8.48617C48.4567 5.98857 46.4213 3.95724 43.9237 3.95724ZM46.2754 8.48617C46.2754 9.77958 45.2212 10.8378 43.9237 10.8378C42.6263 10.8378 41.5761 9.78363 41.5761 8.48617C41.5761 7.18872 42.6303 6.13859 43.9237 6.13859C45.2171 6.13859 46.2754 7.19277 46.2754 8.48617ZM69.2119 10.1729C69.2119 11.7055 67.9631 12.9502 66.4346 12.9502C64.902 12.9502 63.6572 11.7055 63.6572 10.1729C63.6572 8.64025 64.902 7.39551 66.4346 7.39551C67.9672 7.39551 69.2119 8.64025 69.2119 10.1729ZM7.77737 51.132C6.24475 51.132 5 52.3768 5 53.9094C5 55.438 6.24475 56.6868 7.77737 56.6868C9.30593 56.6868 10.5547 55.442 10.5547 53.9094C10.5507 52.3768 9.30593 51.132 7.77737 51.132ZM43.9278 82.4453C42.3951 82.4453 41.1504 83.69 41.1504 85.2226C41.1504 86.7512 42.3951 88 43.9278 88C45.4563 88 46.7051 86.7553 46.7051 85.2226C46.7051 83.69 45.4604 82.4453 43.9278 82.4453ZM20.8533 13.7085C22.3819 13.7085 23.6307 12.4637 23.6307 10.9311C23.6307 9.39848 22.386 8.15373 20.8533 8.15373C19.3207 8.15373 18.076 9.39848 18.076 10.9311C18.076 12.4637 19.3207 13.7085 20.8533 13.7085ZM77.8846 52.4618C77.8846 50.9292 79.1294 49.6845 80.662 49.6845C82.1946 49.6845 83.4394 50.9333 83.4394 52.4618C83.4394 53.9945 82.1906 55.2392 80.662 55.2392C79.1294 55.2392 77.8846 53.9904 77.8846 52.4618ZM43.9237 75.5971C46.4213 75.5971 48.4567 73.5658 48.4567 71.0682C48.4567 68.5706 46.4213 66.5352 43.9237 66.5352C41.4261 66.5352 39.3948 68.5706 39.3948 71.0682C39.3948 73.5658 41.4261 75.5971 43.9237 75.5971ZM41.5761 71.0682C41.5761 69.7748 42.6303 68.7165 43.9237 68.7165C45.2171 68.7165 46.2754 69.7707 46.2754 71.0682C46.2754 72.3656 45.2212 73.4158 43.9237 73.4158C42.6263 73.4158 41.5761 72.3616 41.5761 71.0682ZM49.5555 41.3524C49.5555 44.4582 47.0295 46.9842 43.9237 46.9842C40.8179 46.9842 38.2919 44.4582 38.2919 41.3524C38.2919 38.2466 40.8179 35.7207 43.9237 35.7207C47.0295 35.7207 49.5555 38.2466 49.5555 41.3524ZM43.9237 37.898C42.0221 37.898 40.4733 39.4468 40.4733 41.3484C40.4733 43.254 42.0221 44.8029 43.9237 44.7988C45.8253 44.7988 47.3741 43.254 47.3741 41.3484C47.3741 39.4468 45.8253 37.898 43.9237 37.898Z" fill="#B09043"/>
</g>
<defs>
<clipPath id="clip0_10527_91563">
<rect width="88" height="88" fill="white"/>
</clipPath>
</defs>
</svg>
